<?xml version="1.0" encoding="UTF-8"?> <svg xmlns="http://www.w3.org/2000/svg" xmlns:xlink="http://www.w3.org/1999/xlink" width="204.29mm" height="86.64mm" viewBox="0 0 579.08 245.58"><defs><clipPath id="a"><rect width="579.08" height="245.58" fill="none"></rect></clipPath><linearGradient id="b" x1="93.32" y1="245.58" x2="93.32" y2="0.01" gradientUnits="userSpaceOnUse"><stop offset="0" stop-color="#2b9631"></stop><stop offset="0.16" stop-color="#50a428"></stop><stop offset="0.4" stop-color="#80b81b"></stop><stop offset="0.59" stop-color="#9fc414"></stop><stop offset="0.69" stop-color="#aac811"></stop></linearGradient></defs><g clip-path="url(#a)"><path d="M562.13,72.47a1.24,1.24,0,0,0,.81.29,1.22,1.22,0,0,0,.81-.29.94.94,0,0,0,.33-.72v-9l5.31,9.41a1.11,1.11,0,0,0,1.05.61,1.13,1.13,0,0,0,1-.51l5.36-9.51v9a.94.94,0,0,0,.33.72,1.22,1.22,0,0,0,.81.29,1.2,1.2,0,0,0,.81-.29.94.94,0,0,0,.33-.72V58.42A.93.93,0,0,0,579,58a.82.82,0,0,0-.24-.32,1,1,0,0,0-.37-.22,1.32,1.32,0,0,0-.44-.08,1.21,1.21,0,0,0-1,.55l-6.48,11.51L564,58a1.14,1.14,0,0,0-1-.55,1.33,1.33,0,0,0-.45.08,1,1,0,0,0-.36.22,1,1,0,0,0-.33.72V71.75a.94.94,0,0,0,.33.72m-2-13.33a.9.9,0,0,0,.34-.72.92.92,0,0,0-.34-.72,1.16,1.16,0,0,0-.81-.3H548.51a1.16,1.16,0,0,0-.81.3.94.94,0,0,0-.33.72.92.92,0,0,0,.33.72,1.16,1.16,0,0,0,.81.3h4.27V71.75a.94.94,0,0,0,.33.72,1.26,1.26,0,0,0,1.61,0,.92.92,0,0,0,.34-.72V59.44h4.26a1.16,1.16,0,0,0,.81-.3" fill="#73b0db"></path><path d="M524.16,176.49a6.27,6.27,0,0,0-4.63-2,6.35,6.35,0,0,0-4.7,2,6.44,6.44,0,0,0-1.92,4.67v57.33a6.59,6.59,0,1,0,13.17,0V207.43a19,19,0,0,1,1.54-7.62,20.07,20.07,0,0,1,10.52-10.56,19,19,0,0,1,7.66-1.54,18.73,18.73,0,0,1,7.62,1.57,20.53,20.53,0,0,1,6.27,4.26,20.26,20.26,0,0,1,4.25,6.27,18.74,18.74,0,0,1,1.58,7.62v31.06a6.56,6.56,0,0,0,6.61,6.61,6.3,6.3,0,0,0,4.63-1.92,6.37,6.37,0,0,0,1.92-4.69V207.43A31.53,31.53,0,0,0,576,194.61a33.32,33.32,0,0,0-7.18-10.46,34.6,34.6,0,0,0-10.49-7,32.66,32.66,0,0,0-32.29,3.9,6.3,6.3,0,0,0-1.92-4.54m-48.21,13a22.49,22.49,0,0,1,7,4.79,22.78,22.78,0,0,1,4.73,7,21.92,21.92,0,0,1,0,17.07,22.62,22.62,0,0,1-4.73,7,22.16,22.16,0,0,1-7,4.79,22.09,22.09,0,0,1-17.33,0,22.18,22.18,0,0,1-7-4.75,22.55,22.55,0,0,1-4.69-7,22,22,0,0,1,0-17.13,22.12,22.12,0,0,1,11.68-11.79,22.21,22.21,0,0,1,17.33,0m24,6.81a35.62,35.62,0,0,0-32.66-21.74,35.28,35.28,0,0,0-24.95,60.23,35.28,35.28,0,0,0,60.23-25A36.24,36.24,0,0,0,500,196.28M389.46,176.46a6.63,6.63,0,0,0,0,9.33,6.25,6.25,0,0,0,4.57,1.92h3V219.4q0,25.69,25.77,25.7a6.22,6.22,0,0,0,4.6-1.92,6.43,6.43,0,0,0,1.89-4.69,6.36,6.36,0,0,0-1.89-4.63,6.22,6.22,0,0,0-4.6-1.92q-12.6,0-12.6-12.54V187.71H418a6.21,6.21,0,0,0,4.6-1.92,6.7,6.7,0,0,0,0-9.33,6.21,6.21,0,0,0-4.6-1.92h-7.87V150.85a6.59,6.59,0,0,0-13.17,0v23.69h-3a6.25,6.25,0,0,0-4.57,1.92m-40.08,0a6.63,6.63,0,0,0,0,9.33,6.25,6.25,0,0,0,4.57,1.92h3V219.4q0,25.69,25.77,25.7a6.21,6.21,0,0,0,4.6-1.92,6.43,6.43,0,0,0,1.89-4.69,6.36,6.36,0,0,0-1.89-4.63,6.21,6.21,0,0,0-4.6-1.92q-12.6,0-12.6-12.54V187.71H378a6.21,6.21,0,0,0,4.6-1.92,6.7,6.7,0,0,0,0-9.33,6.21,6.21,0,0,0-4.6-1.92h-7.87V157.43a6.57,6.57,0,0,0-6.55-6.56,6.41,6.41,0,0,0-4.7,1.93,6.3,6.3,0,0,0-1.92,4.63v17.11h-3a6.25,6.25,0,0,0-4.57,1.92m-30.59,13a22.49,22.49,0,0,1,7,4.79,22.78,22.78,0,0,1,4.73,7,21.92,21.92,0,0,1,0,17.07,22.62,22.62,0,0,1-4.73,7,22.16,22.16,0,0,1-7,4.79,22.07,22.07,0,0,1-17.32,0,22,22,0,0,1-11.69-11.78,22.07,22.07,0,0,1,0-17.13,22.09,22.09,0,0,1,11.69-11.79,22.19,22.19,0,0,1,17.32,0m24,6.81a35.62,35.62,0,0,0-32.66-21.74,35.28,35.28,0,0,0-25,60.23,35.28,35.28,0,0,0,60.23-25,36.24,36.24,0,0,0-2.62-13.54M259,226.52a22.81,22.81,0,0,1-6.68,4.06,21.32,21.32,0,0,1-7.69,1.36A21.57,21.57,0,0,1,236,230.2a22.49,22.49,0,0,1-7.05-4.72,22.07,22.07,0,0,1-4.76-7,22.39,22.39,0,0,1,0-17.26,21.91,21.91,0,0,1,4.76-7,22.52,22.52,0,0,1,7.05-4.73,21.74,21.74,0,0,1,8.63-1.73,20.7,20.7,0,0,1,7.69,1.39,24.2,24.2,0,0,1,6.74,4.09,6.67,6.67,0,0,0,4.29,1.51,6.32,6.32,0,0,0,4.69-1.89,6.75,6.75,0,0,0-.41-9.7,33.61,33.61,0,0,0-23-8.57,35.28,35.28,0,0,0-24.94,60.23,35.21,35.21,0,0,0,47.94,1.76,6.66,6.66,0,0,0,2.08-4.85,6.36,6.36,0,0,0-6.55-6.55,7,7,0,0,0-4.16,1.39" fill="#73b0db"></path><path d="M537,88.81a6.32,6.32,0,0,0-4.63-1.92,6.4,6.4,0,0,0-4.7,1.92,6.3,6.3,0,0,0-1.92,4.63V150.9a6.32,6.32,0,0,0,1.92,4.63,6.4,6.4,0,0,0,4.7,1.92A6.56,6.56,0,0,0,539,150.9V122.17a21.67,21.67,0,0,1,1.73-8.63,22,22,0,0,1,11.75-11.75,21.56,21.56,0,0,1,8.63-1.73,23.15,23.15,0,0,1,8.63,1.57,7.09,7.09,0,0,0,2.78.69,6.7,6.7,0,0,0,2.58-.5,6.26,6.26,0,0,0,2.08-1.42,7.32,7.32,0,0,0,1.42-2.11,6.37,6.37,0,0,0,.53-2.58,5.86,5.86,0,0,0-1.76-4.41,12.37,12.37,0,0,0-4.45-2.68A25.84,25.84,0,0,0,567,87.27a49,49,0,0,0-6-.38,34.44,34.44,0,0,0-11.84,2A36.21,36.21,0,0,0,539,94.7V93.44A6.3,6.3,0,0,0,537,88.81m-41.8,50.43A21,21,0,0,1,488.8,143a23.06,23.06,0,0,1-14.65.13A22.73,22.73,0,0,1,468,140a21.86,21.86,0,0,1-4.88-4.91,21.32,21.32,0,0,1-3.15-6.33h49.89a6.5,6.5,0,0,0,4.7-1.86,6.25,6.25,0,0,0,1.92-4.69,35.17,35.17,0,0,0-2.59-13.58,35.34,35.34,0,1,0-57.64,38.53,35.3,35.3,0,0,0,48,1.76,6.54,6.54,0,0,0,1.89-4.72,6.36,6.36,0,0,0-6.56-6.56,6.87,6.87,0,0,0-4.34,1.64M460,115.62a20.62,20.62,0,0,1,3.08-6.34,21.83,21.83,0,0,1,4.92-4.91,23,23,0,0,1,6.24-3.18,22.09,22.09,0,0,1,13.95,0,22.61,22.61,0,0,1,11.09,8.09,21.57,21.57,0,0,1,3.18,6.34Zm-55.1-26.81a6.28,6.28,0,0,0-1.93,4.63,6.35,6.35,0,0,0,1.93,4.69,6.24,6.24,0,0,0,4.56,1.93h3v31.68q0,25.71,25.77,25.71a6.21,6.21,0,0,0,4.6-1.92,6.45,6.45,0,0,0,1.89-4.7,6.37,6.37,0,0,0-1.89-4.63,6.21,6.21,0,0,0-4.6-1.92q-12.6,0-12.6-12.54V100.06h7.88a6.25,6.25,0,0,0,4.6-1.93,6.43,6.43,0,0,0,1.89-4.69A6.36,6.36,0,0,0,438,88.81a6.24,6.24,0,0,0-4.6-1.92h-7.88V63.2A6.56,6.56,0,0,0,419,56.65a6.37,6.37,0,0,0-4.69,1.92,6.28,6.28,0,0,0-1.93,4.63V86.89h-3a6.23,6.23,0,0,0-4.56,1.92m-40.08,0a6.27,6.27,0,0,0-1.92,4.63,6.34,6.34,0,0,0,1.92,4.69,6.24,6.24,0,0,0,4.56,1.93h3v31.68q0,25.71,25.76,25.71a6.21,6.21,0,0,0,4.6-1.92,6.45,6.45,0,0,0,1.89-4.7c0-1.8.83-5.22-.43-6.5,0,0-4.25-.05-6.06-.05q-12.6,0-12.6-12.54V100.06h7.88a6.23,6.23,0,0,0,4.6-1.93,6.43,6.43,0,0,0,1.89-4.69,6.36,6.36,0,0,0-1.89-4.63,6.22,6.22,0,0,0-4.6-1.92h-7.88V63.2a6.56,6.56,0,0,0-6.55-6.55,6.37,6.37,0,0,0-4.69,1.92,6.3,6.3,0,0,0-1.92,4.63V86.89h-3a6.23,6.23,0,0,0-4.56,1.92m-27.31,50.43A20.81,20.81,0,0,1,331,143a23.06,23.06,0,0,1-14.65.13,22.64,22.64,0,0,1-6.18-3.19,22.29,22.29,0,0,1-4.88-4.91,21.81,21.81,0,0,1-3.15-6.33h49.9a6.48,6.48,0,0,0,4.69-1.86,6.25,6.25,0,0,0,1.92-4.69,35.35,35.35,0,0,0-2.58-13.58,35.34,35.34,0,1,0-57.65,38.53,35.3,35.3,0,0,0,48,1.76,6.54,6.54,0,0,0,1.89-4.72,6.36,6.36,0,0,0-6.55-6.56,6.88,6.88,0,0,0-4.35,1.64m-35.28-23.62a20.42,20.42,0,0,1,3.09-6.34,21.58,21.58,0,0,1,4.91-4.91,23,23,0,0,1,6.24-3.18,21.87,21.87,0,0,1,7-1.13,21.51,21.51,0,0,1,7,1.13,22.49,22.49,0,0,1,11.09,8.09,21.36,21.36,0,0,1,3.19,6.34ZM222.65,63.2a6.23,6.23,0,0,0-1.92-4.69,6.52,6.52,0,0,0-4.7-1.86,6.36,6.36,0,0,0-6.55,6.55v59a35.28,35.28,0,0,0,60.23,25,33.73,33.73,0,0,0,10.33-25,35.35,35.35,0,0,0-2.58-13.58,35.81,35.81,0,0,0-32.7-21.7,33.45,33.45,0,0,0-22.11,7.81Zm13.42,79.32a22.12,22.12,0,0,1-11.69-11.78,22.09,22.09,0,0,1,0-17.14,22,22,0,0,1,11.69-11.78,22.19,22.19,0,0,1,17.32,0,22.16,22.16,0,0,1,7,4.79,22.73,22.73,0,0,1,4.73,7,21.92,21.92,0,0,1,0,17.07,22.78,22.78,0,0,1-4.73,7,22.49,22.49,0,0,1-7,4.79,22.19,22.19,0,0,1-17.32,0" fill="#73b0db"></path></g><path d="M37.57,167.93A33.57,33.57,0,0,1,60,136.22c0-.37,0-.69,0-1a33.39,33.39,0,1,1,66.77,0c0,.24,0,.46,0,.73a33.57,33.57,0,1,1-33.07,56.89,32.63,32.63,0,0,0,31-22.68,32.64,32.64,0,0,0-19.24,6.2,32.78,32.78,0,0,0-.07-20.2,32.69,32.69,0,0,0-11.94,16.29,32.54,32.54,0,0,0-11.91-16.3,32.82,32.82,0,0,0-.1,20.19,32.51,32.51,0,0,0-19.18-6.16,32.8,32.8,0,0,0,31.19,22.69l0,0h0s0,0,0,0a33.94,33.94,0,0,1-22.44,8.77,33.54,33.54,0,0,1-33.37-33.67M0,0V151.58a94,94,0,0,0,59.42,87.59v0c30.49-10.24,33.9-44.43,34.06-46.32,0,0,0,0,0,0,.4,1.71,7.91,33.28-.75,52.75h2.3c50.74-.94,91.59-42.66,91.59-94,0-51.91-41.77-94-93.33-94A92.31,92.31,0,0,0,44.8,71.26L44.78,0Z" fill="url(#b)"></path></svg> 